<svg width="180" height="211" viewBox="0 0 180 211" fill="none" xmlns="http://www.w3.org/2000/svg">
<rect y="14.2401" width="74" height="184" rx="37" fill="#52B02B"/>
<rect x="21.5" y="106.066" width="150" height="74" rx="37" transform="rotate(-45 21.5 106.066)" fill="#FF3E59"/>
<path d="M135.958 44.0244C140.644 48.7107 141.003 55.9502 136.759 60.1942C132.515 64.4383 118.017 71.3381 113.331 66.6518C108.644 61.9655 115.544 47.4677 119.788 43.2236C124.032 38.9796 131.272 39.3381 135.958 44.0244Z" fill="#1A1D2E"/>
<rect x="73.8259" y="52.5" width="150" height="74" rx="37" transform="rotate(45 73.8259 52.5)" fill="#FF3E59"/>
<path d="M135.868 166.958C131.181 171.644 123.942 172.003 119.698 167.759C115.454 163.515 108.554 149.017 113.24 144.331C117.926 139.644 132.424 146.544 136.668 150.788C140.912 155.032 140.554 162.272 135.868 166.958Z" fill="#1A1D2E"/>
</svg>